<?xml version="1.0" encoding="UTF-8"?>
<svg version="1.1" xmlns="http://www.w3.org/2000/svg" width="512" height="512">
<path d="M0 0 C0.84120392 -0.00067474 1.68240784 -0.00134949 2.54910278 -0.00204468 C16.49812475 0.01566322 30.06034706 0.75838107 43.8125 3.25 C44.73385742 3.41097168 45.65521484 3.57194336 46.60449219 3.73779297 C90.50106321 11.63553414 131.57920815 31.54721689 164.8125 61.25 C165.59947266 61.95237793 165.59947266 61.95237793 166.40234375 62.66894531 C176.36838222 71.6054847 185.44477842 80.77924043 193.8125 91.25 C194.44800781 92.00667969 195.08351563 92.76335937 195.73828125 93.54296875 C227.97635247 132.32209789 248.6007052 185.41186261 249.05078125 236.0234375 C249.0605751 236.93665268 249.07036896 237.84986786 249.08045959 238.79075623 C249.25207188 258.94948639 249.09539105 278.4587409 244.8125 298.25 C244.59819336 299.26707031 244.38388672 300.28414063 244.16308594 301.33203125 C232.22354279 356.59803881 200.69770403 408.47350339 155.8125 443.25 C154.90242188 443.96542969 153.99234375 444.68085938 153.0546875 445.41796875 C113.85317862 475.59351714 63.81730924 496.20878166 13.86328125 496.453125 C12.46241524 496.46167511 12.46241524 496.46167511 11.0332489 496.47039795 C9.06083284 496.47979534 7.08840144 496.48636084 5.1159668 496.49023438 C2.17792188 496.49982721 -0.75938765 496.53085409 -3.69726562 496.5625 C-17.08973967 496.63751507 -29.98387146 495.46873048 -43.1875 493.25 C-44.34048584 493.05647949 -45.49347168 492.86295898 -46.68139648 492.66357422 C-49.32323372 492.18109454 -51.94154442 491.64710933 -54.5625 491.0625 C-55.49908447 490.85383301 -56.43566895 490.64516602 -57.40063477 490.43017578 C-110.26079422 478.12731285 -159.60751141 446.96189599 -193.1875 404.25 C-193.96738281 403.28707031 -194.74726563 402.32414062 -195.55078125 401.33203125 C-220.84763932 369.49914286 -236.37467328 331.94965976 -244.1875 292.25 C-244.35556152 291.40775879 -244.52362305 290.56551758 -244.69677734 289.69775391 C-249.81937091 262.61967125 -249.61794347 231.25217838 -244.1875 204.25 C-243.98350586 203.21568848 -243.77951172 202.18137695 -243.56933594 201.11572266 C-240.59214155 186.40526219 -236.70777969 172.20865903 -231.1875 158.25 C-230.84847656 157.39067871 -230.50945312 156.53135742 -230.16015625 155.64599609 C-219.12811575 128.07094615 -203.44967783 103.00435372 -183.1875 81.25 C-181.99509878 79.87924817 -180.80736117 78.50442137 -179.625 77.125 C-172.78876087 69.31885967 -165.30277477 62.70248007 -157.1875 56.25 C-156.11396889 55.37445076 -155.04107003 54.49812583 -153.96875 53.62109375 C-110.36654316 18.24703507 -55.86698918 0.04040938 0 0 Z " fill="#B4CDB2" transform="translate(255.1875,7.75)"/>
<path d="M0 0 C0.84120392 -0.00067474 1.68240784 -0.00134949 2.54910278 -0.00204468 C16.49812475 0.01566322 30.06034706 0.75838107 43.8125 3.25 C44.73385742 3.41097168 45.65521484 3.57194336 46.60449219 3.73779297 C90.50106321 11.63553414 131.57920815 31.54721689 164.8125 61.25 C165.59947266 61.95237793 165.59947266 61.95237793 166.40234375 62.66894531 C176.36838222 71.6054847 185.44477842 80.77924043 193.8125 91.25 C194.44800781 92.00667969 195.08351563 92.76335937 195.73828125 93.54296875 C227.97635247 132.32209789 248.6007052 185.41186261 249.05078125 236.0234375 C249.0605751 236.93665268 249.07036896 237.84986786 249.08045959 238.79075623 C249.25207188 258.94948639 249.09539105 278.4587409 244.8125 298.25 C244.59819336 299.26707031 244.38388672 300.28414063 244.16308594 301.33203125 C232.22354279 356.59803881 200.69770403 408.47350339 155.8125 443.25 C154.90242188 443.96542969 153.99234375 444.68085938 153.0546875 445.41796875 C113.85317862 475.59351714 63.81730924 496.20878166 13.86328125 496.453125 C12.46241524 496.46167511 12.46241524 496.46167511 11.0332489 496.47039795 C9.06083284 496.47979534 7.08840144 496.48636084 5.1159668 496.49023438 C2.17792188 496.49982721 -0.75938765 496.53085409 -3.69726562 496.5625 C-17.08973967 496.63751507 -29.98387146 495.46873048 -43.1875 493.25 C-44.34048584 493.05647949 -45.49347168 492.86295898 -46.68139648 492.66357422 C-49.32323372 492.18109454 -51.94154442 491.64710933 -54.5625 491.0625 C-55.49908447 490.85383301 -56.43566895 490.64516602 -57.40063477 490.43017578 C-107.20247681 478.83911661 -148.79857334 451.35788906 -184.1875 415.25 C-183.8575 414.59 -183.5275 413.93 -183.1875 413.25 C-182.01380859 414.33087891 -182.01380859 414.33087891 -180.81640625 415.43359375 C-176.66524292 418.88459014 -171.99420153 421.04633622 -167.125 423.3125 C-165.72544067 423.96992187 -165.72544067 423.96992187 -164.29760742 424.640625 C-157.39976811 427.82121244 -150.60389728 430.52044728 -143.1875 432.25 C-142.1365918 432.50946411 -142.1365918 432.50946411 -141.06445312 432.77416992 C-101.92332544 441.67095772 -69.41209828 422.60348387 -35.78780985 405.75164318 C-31.49551875 403.60164728 -27.20025499 401.45760365 -22.90548706 399.31256104 C-15.71396761 395.71951139 -8.5249597 392.12147596 -1.33740234 388.52050781 C6.95544728 384.36588348 15.25262715 380.22000783 23.5520457 376.0785234 C30.71651889 372.50310039 37.87863679 368.92299329 45.03881657 365.33897996 C49.29920979 363.2064536 53.56038076 361.07552423 57.82369614 358.94884491 C61.82062473 356.95472467 65.81455529 354.95472223 69.80628204 352.95021057 C71.26651799 352.21811685 72.72776764 351.48804084 74.1901207 350.76018524 C87.88376815 343.94158796 97.59976124 337.95710514 103.1171875 323.05078125 C105.78671454 312.29768637 103.68046845 303.28787158 98.4921875 293.84765625 C95.13492095 288.33476773 91.21054782 284.74366039 85.8125 281.25 C88.19657219 278.79781146 90.4802172 276.49083857 93.25390625 274.48046875 C96.25882292 271.86091544 97.72074004 269.33710701 99.5625 265.8125 C100.15546875 264.70003906 100.7484375 263.58757812 101.359375 262.44140625 C105.68284507 252.94604322 104.1333724 242.85961108 100.8125 233.25 C99.66464543 231.03009257 98.43328401 229.01036607 96.99609375 226.96875 C95.8125 225.25 95.8125 225.25 94.7734375 223.09765625 C93.51083734 220.66997384 92.30027347 220.31618863 89.8125 219.25 C88.13915961 218.26120795 86.47098177 217.26351664 84.8125 216.25 C85.534375 215.693125 86.25625 215.13625 87 214.5625 C96.02251889 207.14398447 102.73909603 198.57117433 104.26953125 186.70703125 C104.49437064 179.07081942 103.46018275 172.96582713 99.8125 166.25 C99.38839844 165.45722656 98.96429688 164.66445312 98.52734375 163.84765625 C92.55363529 153.84710253 81.94951996 149.59984801 71.85498047 144.59301758 C70.57053593 143.95039893 69.28635347 143.30725622 68.00241089 142.66363525 C64.53727126 140.92851523 61.06847088 139.20083707 57.5988822 137.47463441 C53.93741137 135.65148492 50.27923646 133.82174431 46.62063599 131.99284363 C40.464424 128.91658033 34.30598407 125.8448177 28.14599609 122.77612305 C20.31100365 118.87297211 12.47965972 114.96256047 4.64950371 111.0497179 C-2.15469918 107.64963093 -8.96059423 104.25293576 -15.76675177 100.8567636 C-17.91617047 99.78407487 -20.06537178 98.71095159 -22.21454239 97.63776588 C-38.80102748 89.35715257 -55.42343836 81.16721519 -72.1875 73.25 C-72.88948643 72.91718836 -73.59147285 72.58437672 -74.3147316 72.24147987 C-98.06411756 61.01240028 -127.13921671 58.65767979 -152.1875 67.25 C-162.44092801 71.32666415 -172.39346428 76.18014622 -182.1875 81.25 C-180.58000456 77.24552912 -177.77421612 74.53211881 -174.75 71.5625 C-174.21358887 71.03213135 -173.67717773 70.5017627 -173.12451172 69.95532227 C-168.08215437 65.03535223 -162.72732419 60.59951062 -157.1875 56.25 C-156.11856658 55.38041001 -155.05090867 54.50925032 -153.984375 53.63671875 C-110.39792077 18.24206732 -55.86290016 0.04040642 0 0 Z " fill="#F5F2DF" transform="translate(255.1875,7.75)"/>
<path d="M0 0 C0.6504126 0.12785889 1.3008252 0.25571777 1.97094727 0.38745117 C17.91327578 4.06942985 33.21397994 13.37730809 47.76953125 20.5546875 C50.00617395 21.65476893 52.24289563 22.75468978 54.47969055 23.85446167 C60.9947724 27.05992837 67.50632142 30.27251831 74.01648045 33.48796654 C75.79845893 34.36806528 77.58056062 35.24791455 79.36266327 36.12776184 C93.5289215 43.12280341 107.68465143 50.13867646 121.8254528 57.18504715 C128.45045634 60.4861525 135.07933549 63.77912126 141.71329564 67.06217682 C147.08190931 69.71999608 152.44388155 72.39095428 157.80368996 75.06649399 C160.04182953 76.18131501 162.28200247 77.29206443 164.52432823 78.39844131 C167.62181689 79.92773604 170.71139827 81.47199743 173.79956055 83.02001953 C174.70055481 83.46051636 175.60154907 83.90101318 176.52984619 84.3548584 C184.91228546 88.59409814 191.48769686 93.58803846 195.75 102.0625 C196.31589844 103.15949219 196.88179688 104.25648438 197.46484375 105.38671875 C200.8794294 112.95819129 201.09818512 121.6866827 198.90625 129.6796875 C194.94890711 139.64914748 189.69808704 146.42120563 180.8125 152.375 C181.32039063 152.643125 181.82828125 152.91125 182.3515625 153.1875 C191.40881894 158.34369093 195.65476258 165.60419993 198.8125 175.375 C201.43155244 186.06946412 199.36772624 194.98852904 194.1875 204.5 C190.97493516 209.69202398 186.83795551 213.00236097 181.8125 216.375 C184.00729141 218.63558816 186.01879974 220.5171176 188.625 222.3125 C194.10377489 226.75701636 198.68640347 235.41490938 199.8125 242.375 C200.89574406 254.38353414 198.56710946 265.03773203 190.71234512 274.45635319 C183.09253638 282.15157086 171.9046245 286.54464 162.29785156 291.32641602 C160.76368864 292.09553471 159.22978064 292.86516208 157.69610596 293.63525391 C153.5622981 295.70894705 149.42477781 297.77512467 145.28634357 299.83956647 C140.9327196 302.01255355 136.58205125 304.19144465 132.230896 306.36936951 C124.92333453 310.02587212 117.61327093 313.67733399 110.30175781 317.32592773 C101.88271663 321.52729502 93.46802368 325.73727144 85.05554986 329.95177132 C77.80047313 333.58614707 70.54303791 337.21577973 63.28366065 340.84155792 C58.96226107 342.99993475 54.64165871 345.15986518 50.32318878 347.32409859 C46.25794458 349.36109788 42.18974202 351.39206949 38.1193161 353.41869354 C36.6377936 354.1574944 35.157254 354.8982706 33.67785645 355.64131737 C6.27473807 369.3991029 -23.41566785 377.88357687 -53.94824219 368.171875 C-91.69679012 354.73846239 -111.91359147 327.10358607 -128.99511719 291.95263672 C-145.16823867 256.99034831 -153.18404747 219.85195316 -152.1875 181.375 C-140.9797404 186.57939093 -129.88149774 191.98778229 -118.83984375 197.53515625 C-118.20672901 197.85305492 -117.57361427 198.1709536 -116.92131424 198.49848557 C-110.99058929 201.4769651 -105.06236863 204.4604073 -99.13647461 207.44848633 C-81.1112726 216.58468777 -81.1112726 216.58468777 -62.8125 225.15234375 C-62.13529404 225.45576187 -61.45808807 225.75917999 -60.76036072 226.0717926 C-39.13901074 235.50179974 -12.21919888 235.7000274 9.8125 227.375 C18.27121489 223.82629751 26.44339439 219.69285269 34.60595703 215.52001953 C39.98185595 212.77209715 45.38542623 210.07991554 50.78752136 207.38397217 C54.77885661 205.39179534 58.76854042 203.39664776 62.75170898 201.38818359 C70.87053019 197.30001872 79.0253145 193.30586929 87.23828125 189.41015625 C102.69220991 182.06674961 117.96423446 174.35548537 133.25823975 166.6864624 C137.22935544 164.6957329 141.20164182 162.70734218 145.17382812 160.71875 C149.64851255 158.47837912 154.1230753 156.23776707 158.59687805 153.99563599 C159.27060802 153.65800673 159.94433798 153.32037746 160.638484 152.97251701 C161.93599203 152.32207422 163.23335096 151.67133389 164.53054523 151.02026558 C167.30900119 149.62624867 170.09000129 148.23803839 172.87753296 146.86224365 C173.76703644 146.42285461 174.65653992 145.98346558 175.57299805 145.53076172 C176.32300583 145.16280487 177.07301361 144.79484802 177.8457489 144.41574097 C184.76270534 140.7555117 189.04936245 134.87643552 191.4296875 127.44921875 C192.96016587 119.15652471 192.40653298 110.59419468 187.8125 103.375 C182.01820645 95.80988042 173.505334 92.23766759 165.18530273 88.13232422 C163.59065214 87.332709 161.99660744 86.53188449 160.40312195 85.72994995 C156.09090009 83.56432389 151.77015661 81.41624568 147.44741321 79.27171469 C142.9090319 77.01702723 138.37801081 74.74763718 133.84596252 72.48025513 C126.23045595 68.67299629 118.60954898 64.87673333 110.98510742 61.08740234 C102.19848987 56.7203553 93.41964266 52.33801116 84.64505047 47.94685733 C76.17587986 43.70880001 67.70216028 39.47992217 59.22606087 35.25574112 C55.63302095 33.46503955 52.04140063 31.67153707 48.45089531 29.87575912 C44.21022363 27.75548676 39.96554456 25.64344899 35.7177906 23.53740311 C34.16941045 22.76820568 32.62232761 21.99638965 31.07673645 21.22160339 C21.82163608 16.58474561 12.66438167 12.61392419 2.8125 9.375 C1.75430274 9.0136389 0.69610548 8.65227779 -0.39415836 8.27996635 C-30.30101238 -1.40903706 -59.18930988 11.7175537 -85.25 24.9375 C-86.10110352 25.37916504 -86.95220703 25.82083008 -87.82910156 26.27587891 C-88.61897461 26.68112793 -89.40884766 27.08637695 -90.22265625 27.50390625 C-90.9175415 27.86556885 -91.61242676 28.22723145 -92.32836914 28.59985352 C-94.1875 29.375 -94.1875 29.375 -97.1875 29.375 C-96.5275 28.715 -95.8675 28.055 -95.1875 27.375 C-94.98125 26.653125 -94.775 25.93125 -94.5625 25.1875 C-90.63013379 17.14402366 -81.7559398 13.25228241 -74 9.6875 C-72.47306519 8.97315796 -72.47306519 8.97315796 -70.9152832 8.24438477 C-63.80096025 4.97380312 -56.83039607 2.16165103 -49.1875 0.375 C-48.32511719 0.16617188 -47.46273437 -0.04265625 -46.57421875 -0.2578125 C-44.11792696 -0.80025952 -41.67317704 -1.24074075 -39.1875 -1.625 C-38.00220703 -1.810625 -38.00220703 -1.810625 -36.79296875 -2 C-24.62369858 -3.49545563 -11.96897978 -2.50072534 0 0 Z " fill="#DC6E5A" transform="translate(160.1875,71.625)"/>
<path d="M0 0 C7.34279272 3.69055147 12.50016254 8.95737254 16.13671875 16.29296875 C18.32605448 23.15817085 18.1413486 32.31465755 15.375 39 C14.24609375 41.08203125 14.24609375 41.08203125 13 43 C12.59910156 43.62261719 12.19820313 44.24523437 11.78515625 44.88671875 C4.71584483 54.33295807 -9.10801765 58.62650103 -19.45800781 63.79370117 C-20.98528146 64.55801696 -22.51247021 65.32250241 -24.0395813 66.08714294 C-28.15404199 68.14663626 -32.26974795 70.20362891 -36.38575077 72.26003814 C-40.70721159 74.41949518 -45.02768935 76.58091751 -49.34832764 78.74201965 C-56.59673457 82.36713017 -63.84597862 85.99056236 -71.09570312 89.61303711 C-79.46703511 93.795978 -87.8369174 97.98180855 -96.20605969 102.1691286 C-103.40984024 105.77328985 -110.61440107 109.3758876 -117.81961322 112.97718602 C-122.11533753 115.12427036 -126.41079294 117.27188792 -130.70554352 119.42091942 C-134.7397417 121.4394659 -138.77491808 123.45604345 -142.81084824 125.47112465 C-144.28859269 126.20933758 -145.76599991 126.94822607 -147.24303818 127.68785095 C-149.26439489 128.69990269 -151.2869769 129.70946408 -153.30987549 130.71842957 C-154.43953358 131.2830701 -155.56919167 131.84771063 -156.73308182 132.42946148 C-162.04964681 134.98534738 -167.24436601 137.23201411 -173 138.625 C-173.969375 138.86476563 -174.93875 139.10453125 -175.9375 139.3515625 C-206.85007737 145.89682761 -232.51275707 137.02926517 -259.65234375 123.3203125 C-261.28973788 122.49880923 -262.92740285 121.6778456 -264.56532288 120.85739136 C-268.82410152 118.72234239 -273.07922249 116.58010567 -277.33355713 114.43621826 C-281.69604652 112.23948199 -286.06204699 110.04974679 -290.42773438 107.859375 C-298.95522356 103.57966267 -307.47885533 99.29232914 -316 95 C-316.99 95.99 -316.99 95.99 -318 97 C-321.44553169 84.0758515 -324.22381006 71.26000492 -326 58 C-326.19916016 56.57300781 -326.19916016 56.57300781 -326.40234375 55.1171875 C-327.28660976 47.77656826 -327.08856724 40.38060297 -327 33 C-322.20062635 34.45973326 -317.80969135 36.4640482 -313.34912109 38.7277832 C-312.60674194 39.10043304 -311.86436279 39.47308289 -311.0994873 39.85702515 C-309.49446874 40.66332645 -307.89037668 41.47147419 -306.28712082 42.2812748 C-303.73968001 43.56783008 -301.18972417 44.84927146 -298.6390686 46.12944031 C-292.30053348 49.31203821 -285.96634178 52.5032437 -279.63208008 55.69433594 C-274.28161691 58.38941594 -268.92946525 61.08108814 -263.57509232 63.76839256 C-261.08104045 65.02183166 -258.58947918 66.28012336 -256.09799194 67.53865051 C-227.79767671 81.78075652 -199.31585247 88.88247461 -168 79 C-165.27691196 78.01494838 -162.60194571 76.93248261 -159.92987061 75.81713867 C-159.1953123 75.51205729 -158.46075399 75.20697592 -157.70393634 74.89264965 C-150.22167046 71.7407994 -142.98111056 68.16673434 -135.74707031 64.48828125 C-134.31455964 63.76584896 -132.88174966 63.04400993 -131.44866943 62.32270813 C-128.40300897 60.78850086 -125.35920397 59.2506976 -122.31681061 57.71002197 C-117.5042853 55.27357512 -112.68608888 52.84849184 -107.86688232 50.42529297 C-94.17807124 43.54028282 -80.49602032 36.64193657 -66.82128906 29.72900391 C-59.23864485 25.8959025 -51.65103517 22.07282067 -44.05785823 18.26062489 C-39.26567497 15.85395242 -34.47998596 13.43496016 -29.69873667 11.00664425 C-26.7333214 9.50423138 -23.76213461 8.01353694 -20.78916168 6.52614403 C-19.41163721 5.8340198 -18.0365257 5.13706912 -16.66404724 4.43499184 C-14.79212076 3.47828847 -12.9123459 2.53919424 -11.02960205 1.60400391 C-9.97963673 1.07384674 -8.9296714 0.54368958 -7.84788895 -0.00253296 C-4.66367921 -1.11779564 -3.1711326 -1.02733899 0 0 Z " fill="#D6A250" transform="translate(335,229)"/>
<path d="M0 0 C1.21107422 -0.00773437 2.42214844 -0.01546875 3.66992188 -0.0234375 C19.51925346 0.01088699 33.06239355 4.47970761 47.20874023 11.45996094 C48.27064544 11.97687374 49.33255064 12.49378654 50.42663479 13.02636337 C53.3563043 14.45592353 56.28222758 15.89277482 59.20585394 17.33464622 C61.09068675 18.26389648 62.97648094 19.19117018 64.86250687 20.11799622 C82.94890739 29.0094751 100.98825996 37.99649602 119.02709293 46.98398209 C128.29448397 51.60097146 137.56706884 56.20718924 146.84650141 60.79993081 C153.43186301 64.06041535 160.01103146 67.3331811 166.58580488 70.61496329 C170.49078032 72.56369035 174.39823605 74.5069831 178.3125782 76.43683624 C181.97986454 78.2451628 185.63920511 80.06865799 189.29316521 81.90375519 C190.62706426 82.57040464 191.96367638 83.23165978 193.30325317 83.88682556 C203.53646756 88.89759398 212.56112877 94.26386588 216.4375 105.546875 C218.47495453 114.35886584 217.47219492 122.36185009 213.0625 130.25 C209.7128641 135.32400467 204.92965911 140.27022048 199.0625 142.25 C194.00983745 141.82575906 190.20623433 140.62976985 185.6962738 138.35406494 C185.095805 138.05455547 184.4953362 137.755046 183.87667137 137.44646049 C181.8809077 136.44801666 179.89264131 135.43550073 177.90405273 134.42285156 C176.46807023 133.70087752 175.03163096 132.97981136 173.59477234 132.25958252 C170.50734665 130.70967326 167.4231527 129.15357195 164.34130669 127.59259796 C159.45693573 125.11889033 154.56511442 122.66017686 149.6721344 120.20355225 C140.15789753 115.42422789 130.65102151 110.63037633 121.14514923 105.83444214 C109.07180857 99.74360449 96.99608186 93.65756337 84.91192394 87.58821082 C80.06066588 85.1509836 75.21356747 82.70573555 70.36965454 80.25394487 C67.33744883 78.72117827 64.30184904 77.19522743 61.26536751 75.67095184 C59.8717043 74.96962643 58.47941698 74.26555807 57.08872986 73.55834961 C49.24435425 69.57123508 41.42950593 66.10889008 33.08368015 63.28084946 C30.36784134 62.35418477 27.72496093 61.31724202 25.0625 60.25 C17.12441142 58.21960328 9.27978446 57.94233505 1.125 58 C0.03509766 57.99226563 -1.05480469 57.98453125 -2.17773438 57.9765625 C-19.73507377 58.01829117 -34.67212335 63.03515358 -50.3046875 70.6171875 C-51.39036514 71.1410907 -52.47604279 71.6649939 -53.59461975 72.20477295 C-67.06927301 78.73103639 -80.43287945 85.48036028 -93.79760742 92.22802734 C-97.09123053 93.8898067 -100.38724215 95.54676627 -103.68359375 97.203125 C-105.1910038 97.96692474 -105.1910038 97.96692474 -106.72886658 98.74615479 C-107.64906082 99.20794128 -108.56925507 99.66972778 -109.51733398 100.14550781 C-110.72993141 100.7573996 -110.72993141 100.7573996 -111.96702576 101.38165283 C-113.9375 102.25 -113.9375 102.25 -115.9375 102.25 C-114.05001392 94.57087766 -111.57024311 87.41637912 -108.375 80.1875 C-107.93881348 79.19451904 -107.50262695 78.20153809 -107.05322266 77.1784668 C-99.41466792 60.09510891 -89.74953244 44.64361975 -78.625 29.625 C-78.1088916 28.92487793 -77.5927832 28.22475586 -77.06103516 27.50341797 C-76.57038574 26.85002441 -76.07973633 26.19663086 -75.57421875 25.5234375 C-75.13811279 24.93997559 -74.70200684 24.35651367 -74.25268555 23.75537109 C-72.9375 22.25 -72.9375 22.25 -69.9375 20.25 C-70.2675 21.57 -70.5975 22.89 -70.9375 24.25 C-70.45095947 23.98896484 -69.96441895 23.72792969 -69.46313477 23.45898438 C-36.92229199 6.04694621 -36.92229199 6.04694621 -22.9375 2.25 C-22.32575928 2.07339844 -21.71401855 1.89679688 -21.08374023 1.71484375 C-14.08872233 -0.10342568 -7.19089343 -0.04577757 0 0 Z " fill="#BFDBD0" transform="translate(135.9375,76.75)"/>
<path d="M0 0 C1.84745882 0.92934426 3.69546204 1.85760699 5.54397583 2.78485107 C10.35136527 5.19986317 15.15136507 7.62920241 19.9498291 10.06188965 C24.85402051 12.54490827 29.76519679 15.01403096 34.67578125 17.484375 C42.58161522 21.46352082 50.48312213 25.45110257 58.3793335 29.4493103 C61.58519666 31.07249464 64.79126221 32.69494844 68.0078125 34.296875 C54.26435705 41.21805056 40.51797032 48.11135788 26.59960938 54.67553711 C20.07658068 57.77464546 13.61981526 60.9903413 7.17578125 64.25 C5.8592305 64.91447647 5.8592305 64.91447647 4.51608276 65.59237671 C0.10291746 67.82008613 -4.30590813 70.05567946 -8.70800781 72.30517578 C-33.82372856 85.05137162 -62.07610819 93.26790891 -90.18554688 85.00537109 C-96.08696023 83.02149776 -101.66775677 80.36235563 -107.296875 77.71875 C-107.89166468 77.44081667 -108.48645435 77.16288334 -109.09926796 76.87652779 C-124.20980928 69.81296928 -139.17237902 62.44572273 -154.10229492 55.00952148 C-157.98300062 53.07764861 -161.87189439 51.16282967 -165.76249981 49.25099087 C-168.79275283 47.75813093 -171.81678879 46.25301021 -174.83921242 44.74437141 C-176.27344106 44.03119549 -177.71001094 43.32270716 -179.14896202 42.6191082 C-181.13302977 41.64764247 -183.10762858 40.65911845 -185.08081055 39.66577148 C-186.76281807 38.83190163 -186.76281807 38.83190163 -188.47880554 37.98118591 C-190.9921875 36.296875 -190.9921875 36.296875 -191.86164856 34.08631897 C-191.90472641 33.49580246 -191.94780426 32.90528595 -191.9921875 32.296875 C-185.86374491 29.21969822 -179.73355914 26.14601366 -173.60229492 23.07446289 C-171.5280233 22.03485296 -169.45411459 20.99451851 -167.38061523 19.95336914 C-155.26185161 13.86896681 -143.10782746 7.8756707 -130.86105347 2.05276489 C-125.82989849 -0.34027903 -120.81930124 -2.76286466 -115.83984375 -5.26171875 C-104.72445813 -10.81711024 -94.29785667 -15.58972749 -81.9921875 -17.703125 C-81.0640625 -17.89003906 -80.1359375 -18.07695312 -79.1796875 -18.26953125 C-50.60674853 -22.15629133 -25.00086698 -12.72852792 0 0 Z " fill="#A9B296" transform="translate(199.9921875,217.703125)"/>
<path d="M0 0 C0.6504126 0.12785889 1.3008252 0.25571777 1.97094727 0.38745117 C17.91327578 4.06942985 33.21397994 13.37730809 47.76953125 20.5546875 C50.00617395 21.65476893 52.24289563 22.75468978 54.47969055 23.85446167 C60.9947724 27.05992837 67.50632142 30.27251831 74.01648045 33.48796654 C75.79845893 34.36806528 77.58056062 35.24791455 79.36266327 36.12776184 C93.5289215 43.12280341 107.68465143 50.13867646 121.8254528 57.18504715 C128.45045634 60.4861525 135.07933549 63.77912126 141.71329564 67.06217682 C147.08190931 69.71999608 152.44388155 72.39095428 157.80368996 75.06649399 C160.04182953 76.18131501 162.28200247 77.29206443 164.52432823 78.39844131 C167.62181689 79.92773604 170.71139827 81.47199743 173.79956055 83.02001953 C174.70055481 83.46051636 175.60154907 83.90101318 176.52984619 84.3548584 C184.91228546 88.59409814 191.48769686 93.58803846 195.75 102.0625 C196.31589844 103.15949219 196.88179688 104.25648438 197.46484375 105.38671875 C200.8794294 112.95819129 201.09818512 121.6866827 198.90625 129.6796875 C194.94890711 139.64914748 189.69808704 146.42120563 180.8125 152.375 C181.32039063 152.643125 181.82828125 152.91125 182.3515625 153.1875 C191.40881894 158.34369093 195.65476258 165.60419993 198.8125 175.375 C201.43155244 186.06946412 199.36772624 194.98852904 194.1875 204.5 C190.97493516 209.69202398 186.83795551 213.00236097 181.8125 216.375 C184.00729141 218.63558816 186.01879974 220.5171176 188.625 222.3125 C194.10377489 226.75701636 198.68640347 235.41490938 199.8125 242.375 C200.89574406 254.38353414 198.56710946 265.03773203 190.71234512 274.45635319 C183.09253638 282.15157086 171.9046245 286.54464 162.29785156 291.32641602 C160.76368864 292.09553471 159.22978064 292.86516208 157.69610596 293.63525391 C153.5622981 295.70894705 149.42477781 297.77512467 145.28634357 299.83956647 C140.9327196 302.01255355 136.58205125 304.19144465 132.230896 306.36936951 C124.92333453 310.02587212 117.61327093 313.67733399 110.30175781 317.32592773 C101.88271663 321.52729502 93.46802368 325.73727144 85.05554986 329.95177132 C77.80047313 333.58614707 70.54303791 337.21577973 63.28366065 340.84155792 C58.96226107 342.99993475 54.64165871 345.15986518 50.32318878 347.32409859 C46.25794458 349.36109788 42.18974202 351.39206949 38.1193161 353.41869354 C36.6377936 354.1574944 35.157254 354.8982706 33.67785645 355.64131737 C6.27473807 369.3991029 -23.41566785 377.88357687 -53.94824219 368.171875 C-66.95586146 363.54290975 -81.00074639 357.67758349 -91.25 348.25 C-92.18972656 347.40179688 -93.12945312 346.55359375 -94.09765625 345.6796875 C-96.1875 343.375 -96.1875 343.375 -96.1875 340.375 C-91.81846952 341.00449307 -88.40764353 342.5944031 -84.48046875 344.578125 C-83.15706134 345.23599964 -81.83348777 345.89354012 -80.50976562 346.55078125 C-78.458969 347.57727054 -76.41009133 348.60721358 -74.36450195 349.64404297 C-48.92309636 362.50015518 -20.97110968 367.47949321 6.81216431 358.47192001 C12.36886018 356.44039703 17.62410474 353.80134925 22.92382812 351.18408203 C24.19310509 350.56346078 25.46263558 349.94335779 26.73239899 349.32373238 C30.7647419 347.35220074 34.78906419 345.36463033 38.8125 343.375 C40.12698824 342.72596857 41.44149209 342.07696876 42.75601196 341.4280014 C51.6667161 337.02583934 60.56269927 332.59433844 69.45448112 328.15410376 C71.69293936 327.03636729 73.9316222 325.91908185 76.17036438 324.80191422 C83.21324947 321.28723653 90.25537699 317.77104807 97.29634237 314.25252616 C105.36221016 310.22185362 113.43070693 306.19650542 121.50139761 302.17549884 C127.80136596 299.03631439 134.09902738 295.89253488 140.39494944 292.74524319 C144.13293274 290.87677361 147.87184801 289.01023166 151.61320496 287.14852524 C155.1094755 285.40862125 158.60284522 283.66302761 162.09407043 281.91302299 C163.37131536 281.27401562 164.64958364 280.63704892 165.92895508 280.0023098 C167.67786765 279.13422026 169.42271411 278.25795331 171.1673584 277.38131714 C172.14274315 276.89435804 173.1181279 276.40739895 174.12306976 275.90568352 C176.91668565 274.40941302 176.91668565 274.40941302 179.54032135 272.18710518 C181.8125 270.375 181.8125 270.375 183.8125 270.375 C184.08835937 269.80394531 184.36421875 269.23289062 184.6484375 268.64453125 C185.8125 266.375 185.8125 266.375 187.1015625 264.32421875 C191.49098637 256.89300115 191.93538766 249.85599701 190.8125 241.375 C188.25898381 232.81453383 183.0672148 228.01292318 175.6875 223.4375 C171.50659093 221.89238143 168.98083876 222.86418683 164.96181774 224.62135601 C163.9105536 225.15096841 162.85928946 225.68058081 161.77616882 226.22624207 C161.18698711 226.52096242 160.59780539 226.81568277 159.99076968 227.11933404 C158.02308797 228.10538195 156.05983263 229.09993389 154.09643555 230.09448242 C152.68352403 230.80463704 151.27033419 231.51423815 149.85688782 232.22332764 C146.81430696 233.7510517 143.77361214 235.28244582 140.73428917 236.81664085 C135.91486609 239.2490731 131.09062942 241.67184732 126.26557922 244.09309387 C114.2723157 250.11324233 102.28506377 256.14532895 90.29974365 262.18127441 C81.00070943 266.86426306 71.69985211 271.54354853 62.39337569 276.21173364 C57.61156833 278.61082322 52.83359714 281.01733116 48.05850542 283.42975748 C45.06338211 284.94079853 42.06483123 286.44493968 39.06536674 287.94734192 C37.69190815 288.63697725 36.31980528 289.32932161 34.94930649 290.02482033 C15.93316887 299.66993279 -2.82034631 306.54963155 -24.375 306.5625 C-25.43525391 306.57474609 -26.49550781 306.58699219 -27.58789062 306.59960938 C-47.60000502 306.63619459 -64.23814459 299.74374237 -81.734375 290.828125 C-83.36437331 290.00717485 -84.9948559 289.18718563 -86.62579346 288.36810303 C-90.87039616 286.23355936 -95.10900395 284.08738934 -99.34619141 281.93817139 C-105.35154128 278.89490065 -111.36516097 275.86799205 -117.37774658 272.83905029 C-120.57055309 271.23056065 -123.76109809 269.61771427 -126.94989014 268.00128174 C-128.39725192 267.26939817 -129.84461898 266.53752503 -131.29199219 265.80566406 C-131.94959534 265.47113724 -132.60719849 265.13661041 -133.284729 264.79194641 C-135.8988895 263.47222697 -138.40406266 262.30281245 -141.1875 261.375 C-142.3452506 257.90174819 -142.25616652 255.01432552 -142.1875 251.375 C-130.89132867 256.61441322 -119.71479224 262.07592677 -108.59375 267.67578125 C-107.29215599 268.3305583 -105.99056093 268.98533327 -104.68896484 269.6401062 C-99.32651556 272.33901572 -93.96544986 275.04063426 -88.60839844 277.75024414 C-85.2823158 279.4322616 -81.95322911 281.10820297 -78.62223816 282.78047752 C-77.37419336 283.40847301 -76.12725244 284.03866818 -74.88154602 284.67128944 C-58.2050001 293.13840074 -43.28094096 297.62137507 -24.5625 297.6875 C-23.43070313 297.69297852 -22.29890625 297.69845703 -21.1328125 297.70410156 C-1.99094692 297.54273118 13.75425308 291.2186588 30.54760742 282.74243164 C32.06841079 281.98228505 33.58956508 281.22284019 35.11103821 280.46403503 C39.20123735 278.42162052 43.28644252 276.36940275 47.37070632 274.3151505 C51.66820725 272.15566492 55.97015481 270.00507205 60.27156067 267.8533783 C67.48864163 264.24162521 74.70274794 260.62399114 81.91479492 257.00219727 C91.14455696 252.3671591 100.37888721 247.74130174 109.61480236 243.11853886 C117.5937944 239.12487776 125.57100482 235.12766261 133.54776216 231.12954021 C135.25087234 230.27596708 136.95404155 229.42251173 138.65727019 228.569175 C143.51460441 226.13558335 148.37097412 223.70008851 153.22579765 221.26149178 C154.68989755 220.52640899 156.15431557 219.79195939 157.61909103 219.05822372 C162.02699743 216.84983715 166.42447254 214.62265545 170.8125 212.375 C171.8849679 211.82876921 172.9574358 211.28253841 174.06240273 210.71975517 C175.03767607 210.20870798 176.01294941 209.69766079 177.01777649 209.17112732 C177.85310063 208.73649894 178.68842478 208.30187056 179.54906178 207.85407162 C185.48960491 203.97215046 189.01695857 198.12490575 190.8125 191.375 C191.78990182 182.11540379 191.50726902 174.01572024 185.8125 166.375 C182.14868296 162.37036277 177.92925815 159.26597584 172.8125 157.375 C168.66750354 157.83144487 165.40073601 159.4001414 161.70024109 161.26420593 C161.10289227 161.56300984 160.50554345 161.86181374 159.89009315 162.16967231 C157.89477329 163.16953961 155.9038779 164.17791216 153.9128418 165.1862793 C152.48022605 165.90628595 151.04733204 166.62573918 149.61418152 167.34468079 C146.52903921 168.8936859 143.44578238 170.44636135 140.36389732 172.00183678 C135.47726344 174.46787229 130.5858173 176.92425286 125.69355774 179.37910461 C113.53334347 185.48272951 101.37914107 191.59829429 89.22686768 197.7177124 C79.79814628 202.46554192 70.36760291 207.20967128 60.93144161 211.94270068 C56.08273235 214.37524261 51.23785825 216.81520449 46.39586198 219.26107919 C43.35921958 220.79287679 40.31915161 222.31777909 37.27816963 223.84094048 C35.88536077 224.54025171 34.49390815 225.24227303 33.10405731 225.94744492 C5.95448838 239.71511609 -23.8478526 247.34863589 -53.94549561 238.12216187 C-57.48987682 236.94097485 -60.87075382 235.48376177 -64.26953125 233.9375 C-65.50887421 233.37634239 -65.50887421 233.37634239 -66.77325439 232.80384827 C-82.30384528 225.65799188 -97.51864169 217.817519 -112.79150391 210.1416626 C-117.24230911 207.90589066 -121.69548305 205.67484671 -126.1484375 203.44335938 C-134.83040036 199.0917659 -143.50979656 194.73508049 -152.1875 190.375 C-152.1875 187.405 -152.1875 184.435 -152.1875 181.375 C-140.9797404 186.57939093 -129.88149774 191.98778229 -118.83984375 197.53515625 C-118.20672901 197.85305492 -117.57361427 198.1709536 -116.92131424 198.49848557 C-110.99058929 201.4769651 -105.06236863 204.4604073 -99.13647461 207.44848633 C-81.1112726 216.58468777 -81.1112726 216.58468777 -62.8125 225.15234375 C-62.13529404 225.45576187 -61.45808807 225.75917999 -60.76036072 226.0717926 C-39.13901074 235.50179974 -12.21919888 235.7000274 9.8125 227.375 C18.27121489 223.82629751 26.44339439 219.69285269 34.60595703 215.52001953 C39.98185595 212.77209715 45.38542623 210.07991554 50.78752136 207.38397217 C54.77885661 205.39179534 58.76854042 203.39664776 62.75170898 201.38818359 C70.87053019 197.30001872 79.0253145 193.30586929 87.23828125 189.41015625 C102.69220991 182.06674961 117.96423446 174.35548537 133.25823975 166.6864624 C137.22935544 164.6957329 141.20164182 162.70734218 145.17382812 160.71875 C149.64851255 158.47837912 154.1230753 156.23776707 158.59687805 153.99563599 C159.27060802 153.65800673 159.94433798 153.32037746 160.638484 152.97251701 C161.93599203 152.32207422 163.23335096 151.67133389 164.53054523 151.02026558 C167.30900119 149.62624867 170.09000129 148.23803839 172.87753296 146.86224365 C173.76703644 146.42285461 174.65653992 145.98346558 175.57299805 145.53076172 C176.32300583 145.16280487 177.07301361 144.79484802 177.8457489 144.41574097 C184.76270534 140.7555117 189.04936245 134.87643552 191.4296875 127.44921875 C192.96016587 119.15652471 192.40653298 110.59419468 187.8125 103.375 C182.01820645 95.80988042 173.505334 92.23766759 165.18530273 88.13232422 C163.59065214 87.332709 161.99660744 86.53188449 160.40312195 85.72994995 C156.09090009 83.56432389 151.77015661 81.41624568 147.44741321 79.27171469 C142.9090319 77.01702723 138.37801081 74.74763718 133.84596252 72.48025513 C126.23045595 68.67299629 118.60954898 64.87673333 110.98510742 61.08740234 C102.19848987 56.7203553 93.41964266 52.33801116 84.64505047 47.94685733 C76.17587986 43.70880001 67.70216028 39.47992217 59.22606087 35.25574112 C55.63302095 33.46503955 52.04140063 31.67153707 48.45089531 29.87575912 C44.21022363 27.75548676 39.96554456 25.64344899 35.7177906 23.53740311 C34.16941045 22.76820568 32.62232761 21.99638965 31.07673645 21.22160339 C21.82163608 16.58474561 12.66438167 12.61392419 2.8125 9.375 C1.75430274 9.0136389 0.69610548 8.65227779 -0.39415836 8.27996635 C-30.30101238 -1.40903706 -59.18930988 11.7175537 -85.25 24.9375 C-86.10110352 25.37916504 -86.95220703 25.82083008 -87.82910156 26.27587891 C-88.61897461 26.68112793 -89.40884766 27.08637695 -90.22265625 27.50390625 C-90.9175415 27.86556885 -91.61242676 28.22723145 -92.32836914 28.59985352 C-94.1875 29.375 -94.1875 29.375 -97.1875 29.375 C-96.5275 28.715 -95.8675 28.055 -95.1875 27.375 C-94.98125 26.653125 -94.775 25.93125 -94.5625 25.1875 C-90.63013379 17.14402366 -81.7559398 13.25228241 -74 9.6875 C-72.47306519 8.97315796 -72.47306519 8.97315796 -70.9152832 8.24438477 C-63.80096025 4.97380312 -56.83039607 2.16165103 -49.1875 0.375 C-48.32511719 0.16617188 -47.46273437 -0.04265625 -46.57421875 -0.2578125 C-44.11792696 -0.80025952 -41.67317704 -1.24074075 -39.1875 -1.625 C-38.00220703 -1.810625 -38.00220703 -1.810625 -36.79296875 -2 C-24.62369858 -3.49545563 -11.96897978 -2.50072534 0 0 Z " fill="#31312F" transform="translate(160.1875,71.625)"/>
<path d="M0 0 C0.88502197 0.45560303 1.77004395 0.91120605 2.68188477 1.38061523 C4.13691406 2.12021484 4.13691406 2.12021484 5.62133789 2.87475586 C6.61198242 3.39102539 7.60262695 3.90729492 8.62329102 4.43920898 C9.64100586 4.9593457 10.6587207 5.47948242 11.70727539 6.01538086 C14.20490838 7.2935123 16.69736615 8.58076711 19.18579102 9.87670898 C19.18579102 10.86670898 19.18579102 11.85670898 19.18579102 12.87670898 C0.27187049 22.34535484 -18.64319815 31.81170352 -37.5596323 41.27532673 C-46.34303438 45.66960476 -55.1260607 50.06463073 -63.90820312 54.46142578 C-71.5636432 58.29413294 -79.21978784 62.12542839 -86.87677807 65.95503777 C-90.93020025 67.98240009 -94.98326867 70.0104625 -99.03549385 72.04021645 C-102.85207632 73.95190939 -106.66960034 75.86170874 -110.48784447 77.77008057 C-111.88656836 78.4695797 -113.28495138 79.16976093 -114.68296051 79.87068748 C-116.59761532 80.83051729 -118.51350282 81.7878426 -120.42970276 82.74458313 C-121.49990441 83.28014485 -122.57010607 83.81570658 -123.67273808 84.36749744 C-128.94565472 86.9006887 -134.10681476 89.12039815 -139.81420898 90.50170898 C-140.78358398 90.74147461 -141.75295898 90.98124023 -142.75170898 91.22827148 C-173.66428635 97.77353659 -199.32696606 88.90597415 -226.46655273 75.19702148 C-228.10394686 74.37551821 -229.74161184 73.55455458 -231.37953186 72.73410034 C-235.6383105 70.59905138 -239.89343147 68.45681466 -244.14776611 66.31292725 C-248.5102555 64.11619098 -252.87625598 61.92645578 -257.24194336 59.73608398 C-265.76943255 55.45637165 -274.29306431 51.16903812 -282.81420898 46.87670898 C-283.47420898 47.53670898 -284.13420898 48.19670898 -284.81420898 48.87670898 C-291.81420898 21.65670898 -291.81420898 21.65670898 -291.81420898 13.87670898 C-287.09672841 15.31587589 -282.77787446 17.26595361 -278.39453125 19.49682617 C-277.67647812 19.85811615 -276.95842499 20.21940613 -276.21861267 20.59164429 C-274.66599473 21.37341285 -273.11429257 22.15700231 -271.56341743 22.9422226 C-269.09511726 24.19155126 -266.62411877 25.43538758 -264.15232849 26.67779541 C-257.12666313 30.21041064 -250.10606279 33.75304105 -243.08691406 37.29858398 C-238.78374665 39.471744 -234.47753057 41.63876695 -230.16956902 43.80240631 C-228.54239356 44.62121817 -226.91638392 45.44235167 -225.2916584 46.2660141 C-196.4875645 60.86788883 -168.87138241 69.56627898 -136.81420898 59.87670898 C-123.31924291 55.02104729 -110.61546068 48.42259206 -97.85920334 41.92025757 C-94.26402856 40.08921496 -90.66406176 38.26796084 -87.06216431 36.45019531 C-76.83549524 31.28719899 -66.61444715 26.11327705 -56.40551758 20.9152832 C-50.73539819 18.02840858 -45.05891143 15.15448391 -39.37505782 12.29474068 C-36.38025214 10.78721527 -33.39052364 9.2711949 -30.40626144 7.74279785 C-27.09117542 6.0456112 -23.76561371 4.37092423 -20.43676758 2.70092773 C-19.46006104 2.19403915 -18.48335449 1.68715057 -17.47705078 1.16490173 C-10.96216923 -2.06379088 -6.95313997 -2.77534458 0 0 Z " fill="#E1AA54" transform="translate(301.814208984375,277.123291015625)"/>
<path d="M0 0 C0.91611746 0.28374544 1.83223492 0.56749088 2.77611351 0.85983467 C9.92804576 3.15132078 16.59621777 5.97421101 23.32666016 9.29248047 C24.39325174 9.81148863 25.45984333 10.33049679 26.55875587 10.86523247 C30.04434643 12.56650166 33.52308431 14.28107597 37 16 C38.77107746 16.87490963 38.77107746 16.87490963 40.57793427 17.7674942 C48.95975042 21.91271498 57.3248285 26.09125317 65.68683577 30.27625513 C69.25347441 32.06086755 72.82111315 33.84347892 76.38858032 35.62643433 C82.34749798 38.60499377 88.30558836 41.58520273 94.26318359 44.56640625 C101.14306188 48.00909168 108.02440549 51.44883471 114.90647447 54.88713849 C120.85845543 57.86086258 126.80965837 60.83613919 132.76020873 63.81272495 C136.29688365 65.58183989 139.83382296 67.35042051 143.37147141 69.11758804 C146.67716068 70.76899123 149.98186972 72.42233952 153.28582382 74.07721138 C155.07470977 74.97263148 156.86458172 75.86608087 158.65447998 76.75947571 C159.716315 77.29180313 160.77815002 77.82413055 161.87216187 78.37258911 C162.79559072 78.83449205 163.71901958 79.296395 164.67043114 79.772295 C167 81 167 81 170 83 C166.75804842 85.06917749 163.80305674 86.34547395 160 87 C154.99510821 85.81292039 150.62113931 83.435418 146.09936523 81.04760742 C144.72803901 80.35694446 143.35510026 79.66947537 141.98069763 78.98495483 C138.26106292 77.12132061 134.56523943 75.21435575 130.87196612 73.29913116 C126.98563311 71.29384672 123.07815581 69.33066031 119.17262268 67.3631134 C111.7660875 63.62414011 104.3781448 59.84991551 96.99669272 56.06170493 C86.21493272 50.53034786 75.40672228 45.05111492 64.59780216 39.57307148 C62.99098067 38.75863333 61.38416623 37.94418126 59.77735901 37.12971497 C58.99133916 36.73138043 58.20531932 36.3330459 57.39548069 35.92264062 C52.7714366 33.57779085 48.15292648 31.22246472 43.53895169 28.85786635 C13.94823023 13.69603189 -17.04720341 -2.10004844 -51.37744141 7.78393555 C-72.15349173 14.75829238 -91.62708947 25.68361981 -111.125 35.5625 C-116.54185788 38.3064891 -121.96075059 41.04631191 -127.38470078 43.77625847 C-129.53601933 44.86160524 -131.68359349 45.95411804 -133.83108521 47.04701233 C-135.13737655 47.70560096 -136.44383491 48.36385846 -137.75048828 49.02172852 C-138.88849884 49.59858902 -140.0265094 50.17544952 -141.19900513 50.76979065 C-144 52 -144 52 -147 52 C-146.32160376 47.5013099 -145.63655764 43.35549458 -142.00909424 40.35101318 C-139.35995359 38.95568256 -136.69218571 37.79668266 -133.9140625 36.6796875 C-131.81528971 35.75816014 -129.71800998 34.83322647 -127.62207031 33.90527344 C-125.98534363 33.197276 -125.98534363 33.197276 -124.31555176 32.47497559 C-118.87118171 30.05296155 -113.58051311 27.33937937 -108.2734375 24.6328125 C-106.12926538 23.55137099 -103.98473259 22.4706443 -101.83984375 21.390625 C-98.58509633 19.74771962 -95.33136799 18.10287691 -92.07958984 16.45410156 C-63.16096192 1.80360072 -63.16096192 1.80360072 -51.0625 -0.75 C-50.04285156 -0.97171875 -49.02320312 -1.1934375 -47.97265625 -1.421875 C-32.44914526 -4.44090211 -15.16681165 -4.81426048 0 0 Z " fill="#519190" transform="translate(163,137)"/>
<path d="M0 0 C7.34279272 3.69055147 12.50016254 8.95737254 16.13671875 16.29296875 C18.32605448 23.15817085 18.1413486 32.31465755 15.375 39 C11.77500218 45.69649944 6.38669966 52.39292953 -1 55 C-5.21533846 54.54499528 -8.5001015 53.49614163 -12.27099609 51.59155273 C-13.27158051 51.09110947 -14.27216492 50.5906662 -15.30307007 50.07505798 C-16.36579132 49.53337479 -17.42851257 48.99169159 -18.5234375 48.43359375 C-19.62475006 47.88010757 -20.72606262 47.3266214 -21.86074829 46.75636292 C-25.36933216 44.99089685 -28.8721811 43.21437226 -32.375 41.4375 C-34.75568947 40.23599427 -37.13764276 39.03702006 -39.51953125 37.83789062 C-45.35062145 34.90032186 -51.17704531 31.9536595 -57 29 C-57 27.68 -57 26.36 -57 25 C-50.31474255 21.57623096 -43.62192888 18.16765582 -36.91918659 14.77825069 C-33.80695253 13.20387796 -30.69753424 11.62441063 -27.59399414 10.03295898 C-24.02484006 8.20303474 -20.44455251 6.39594035 -16.86328125 4.58984375 C-15.75165115 4.0159642 -14.64002106 3.44208466 -13.4947052 2.85081482 C-12.45400375 2.33019974 -11.41330231 1.80958466 -10.34106445 1.27319336 C-9.4283931 0.80908554 -8.51572174 0.34497772 -7.57539368 -0.13319397 C-4.56398575 -1.14675029 -3.00467521 -0.92831808 0 0 Z " fill="#E3D7A2" transform="translate(335,229)"/>
<path d="M0 0 C1.84745882 0.92934426 3.69546204 1.85760699 5.54397583 2.78485107 C10.35136527 5.19986317 15.15136507 7.62920241 19.9498291 10.06188965 C24.85402051 12.54490827 29.76519679 15.01403096 34.67578125 17.484375 C42.58161522 21.46352082 50.48312213 25.45110257 58.3793335 29.4493103 C61.58524751 31.07252039 64.79374093 32.68983921 68.0078125 34.296875 C64.3778125 35.946875 60.7478125 37.596875 57.0078125 39.296875 C57.0078125 38.636875 57.0078125 37.976875 57.0078125 37.296875 C56.16738403 37.03997391 55.32695557 36.78307281 54.46105957 36.51838684 C50.73325618 35.19975661 47.26955554 33.54604424 43.75585938 31.75268555 C42.70563095 31.2229715 42.70563095 31.2229715 41.63418579 30.68255615 C40.12086313 29.91876911 38.60844586 29.15318604 37.09684753 28.38599205 C34.69197852 27.16604999 32.28423799 25.95195881 29.87561035 24.73945618 C23.02967782 21.2921539 16.18821013 17.83606609 9.35058594 14.37231445 C5.15853818 12.24925128 0.96245921 10.1343351 -3.23606873 8.02411842 C-4.82256525 7.22472751 -6.40754552 6.42231899 -7.99085999 5.61664391 C-17.48900248 0.78429635 -26.83913844 -3.39587929 -36.9921875 -6.703125 C-38.03620728 -7.06251663 -39.08022705 -7.42190826 -40.15588379 -7.79219055 C-58.84676704 -13.79513352 -81.92584395 -11.06585592 -99.68359375 -3.69921875 C-100.41413971 -3.39679764 -101.14468567 -3.09437653 -101.89736938 -2.78279114 C-110.21487938 0.72490802 -118.26980729 4.74560092 -126.32080078 8.82055664 C-128.85532699 10.10337197 -131.39399512 11.37765139 -133.93359375 12.65039062 C-143.93513982 17.67496178 -153.8657155 22.82496471 -163.75610352 28.06469727 C-181.20911656 37.296875 -181.20911656 37.296875 -183.9921875 37.296875 C-184.3221875 37.956875 -184.6521875 38.616875 -184.9921875 39.296875 C-188.4571875 37.316875 -188.4571875 37.316875 -191.9921875 35.296875 C-191.9921875 34.306875 -191.9921875 33.316875 -191.9921875 32.296875 C-185.86374491 29.21969822 -179.73355914 26.14601366 -173.60229492 23.07446289 C-171.5280233 22.03485296 -169.45411459 20.99451851 -167.38061523 19.95336914 C-155.26185161 13.86896681 -143.10782746 7.8756707 -130.86105347 2.05276489 C-125.82989849 -0.34027903 -120.81930124 -2.76286466 -115.83984375 -5.26171875 C-104.72445813 -10.81711024 -94.29785667 -15.58972749 -81.9921875 -17.703125 C-81.0640625 -17.89003906 -80.1359375 -18.07695312 -79.1796875 -18.26953125 C-50.60674853 -22.15629133 -25.00086698 -12.72852792 0 0 Z " fill="#8CAE93" transform="translate(199.9921875,217.703125)"/>
<path d="M0 0 C2.99184175 2.356669 3.92565559 3.53042757 4.53125 7.35546875 C4.44581651 17.8317502 3.00145259 25.53378356 -4.296875 33.421875 C-7.20317299 36.11486672 -10.23663306 38.67175285 -14 40 C-18.28039853 39.54579177 -21.58086772 38.44979123 -25.3984375 36.49609375 C-26.85830078 35.75649414 -26.85830078 35.75649414 -28.34765625 35.00195312 C-29.34667969 34.48568359 -30.34570312 33.96941406 -31.375 33.4375 C-32.39722656 32.91736328 -33.41945313 32.39722656 -34.47265625 31.86132812 C-36.98555196 30.58139526 -39.49439392 29.29412869 -42 28 C-41.63834458 25.52402635 -41.43067151 24.33339961 -39.41210938 22.77075195 C-38.72955078 22.43003662 -38.04699219 22.08932129 -37.34375 21.73828125 C-36.57627441 21.34600342 -35.80879883 20.95372559 -35.01806641 20.54956055 C-34.18710449 20.14133057 -33.35614258 19.73310059 -32.5 19.3125 C-30.76817279 18.4297981 -29.03640319 17.54698317 -27.3046875 16.6640625 C-25.53657587 15.77580766 -23.76834852 14.88778314 -22 14 C-18.86657426 12.41172404 -15.74367638 10.80450194 -12.625 9.1875 C-11.93083984 8.83921143 -11.23667969 8.49092285 -10.52148438 8.13208008 C-6.25669243 5.92352711 -3.22532432 3.56778154 0 0 Z " fill="#EEE2AA" transform="translate(348,244)"/>
<path d="M0 0 C0.61052719 0.4219162 1.22105438 0.8438324 1.8500824 1.27853394 C6.74882153 4.49083732 11.89311994 7.03231466 17.14866638 9.60617065 C19.21446375 10.62887196 21.28021772 11.65166092 23.34593201 12.67453003 C26.57992104 14.26966158 29.81487724 15.86279675 33.05076599 17.45407104 C36.19008786 18.99972526 39.32577736 20.55255801 42.46116638 22.10617065 C43.43710251 22.58325974 44.41303864 23.06034882 45.41854858 23.55189514 C46.31360611 23.99608292 47.20866364 24.44027069 48.13084412 24.8979187 C48.92167892 25.28698898 49.71251373 25.67605927 50.52731323 26.07691956 C52.34007263 27.1569519 52.34007263 27.1569519 53.34007263 29.1569519 C46.1100775 33.45567029 46.1100775 33.45567029 42.36399841 32.82345581 C40.26145744 31.8468236 38.35888983 30.7140526 36.40257263 29.4694519 C34.77204203 28.5218517 33.13756253 27.58102945 31.50022888 26.64523315 C30.09281433 25.83046509 30.09281433 25.83046509 28.65696716 24.99923706 C21.68666212 21.12775746 14.48813955 17.68568289 7.34007263 14.1569519 C4.35918251 12.68123236 1.38046576 11.20120756 -1.59742737 9.7194519 C-2.26540848 9.38958786 -2.93338959 9.05972382 -3.62161255 8.71986389 C-6.42859829 7.32395365 -9.04664111 5.89914274 -11.65992737 4.1569519 C-10.18767337 3.17645488 -8.68014556 2.24879857 -7.15992737 1.3444519 C-6.32461487 0.82238159 -5.48930237 0.30031128 -4.62867737 -0.23757935 C-1.65992737 -0.8430481 -1.65992737 -0.8430481 0 0 Z " fill="#AB9A40" transform="translate(277.65992736816406,255.84304809570313)"/>
</svg>
